<svg xmlns="http://www.w3.org/2000/svg" viewBox="0 0 100 100">
  <!-- Main rounded square background -->
  <rect x="5" y="5" width="90" height="90" rx="18" ry="18" fill="#4285F4"/>

  <!-- Four colored quadrants -->
  <!-- Blue (top-left) -->
  <rect x="5" y="5" width="45" height="45" rx="18" ry="18" fill="#4285F4"/>
  <rect x="30" y="5" width="20" height="45" fill="#4285F4"/>
  <rect x="5" y="30" width="45" height="20" fill="#4285F4"/>

  <!-- Red (top-right) -->
  <rect x="50" y="5" width="45" height="45" rx="18" ry="18" fill="#EA4335"/>
  <rect x="50" y="5" width="20" height="45" fill="#EA4335"/>
  <rect x="50" y="30" width="45" height="20" fill="#EA4335"/>

  <!-- Yellow (bottom-left) -->
  <rect x="5" y="50" width="45" height="45" rx="18" ry="18" fill="#FBBC05"/>
  <rect x="30" y="50" width="20" height="45" fill="#FBBC05"/>
  <rect x="5" y="50" width="45" height="20" fill="#FBBC05"/>

  <!-- Green (bottom-right) -->
  <rect x="50" y="50" width="45" height="45" rx="18" ry="18" fill="#34A853"/>
  <rect x="50" y="50" width="20" height="45" fill="#34A853"/>
  <rect x="50" y="50" width="45" height="20" fill="#34A853"/>

  <!-- Notebook binding rings -->
  <ellipse cx="8" cy="28" rx="6" ry="5" fill="#5F6368"/>
  <ellipse cx="8" cy="50" rx="6" ry="5" fill="#5F6368"/>
  <ellipse cx="8" cy="72" rx="6" ry="5" fill="#5F6368"/>
</svg>
